<?xml version="1.0" encoding="UTF-8"?><svg id="a" xmlns="http://www.w3.org/2000/svg" viewBox="0 0 203.23 464.53"><defs><style>.b{fill:#fff;}.c{fill:#791200;}</style></defs><path class="c" d="M.17,0H203.23c-.08,3.84-.22,7.67-.22,11.51-.02,85.83-.02,171.66-.02,257.5v192.82c0,.4,.19,.86-.33,1.39-.46-.53-.88-1.07-1.35-1.56-1.93-2.02-3.82-4.09-5.83-6.04-6.04-5.89-11.94-11.91-17.89-17.89-23.9-24.04-47.89-48-71.8-72.02-2.05-2.06-4.65-2.13-6.74-.02-32.52,32.66-65.11,65.26-97.69,97.86-.35,.35-.62,.81-1.23,.98v-3.31c-.01-37.27,.27-74.55-.12-111.82-.03-3.28,.08-6.56,.09-9.83,.04-37.76,.09-75.51,.09-113.27,0-75.43-.02-150.87-.02-226.3Z"/><path class="b" d="M196.45,0c.62,19.9,.27,39.8,.27,59.7,.04,124.55,.02,249.1,.02,373.65v1.56c-.03,1-.37,1.82-1.32,2.23-.94,.4-1.68-.03-2.34-.68-2.19-2.15-4.42-4.26-6.56-6.46-13.99-14.41-27.95-28.83-41.91-43.25-12.64-13.06-25.26-26.15-37.89-39.22-1.2-1.24-2.45-2.41-3.6-3.69-.59-.66-.92-.59-1.5,.02-7.42,7.73-14.87,15.44-22.31,23.14-22.54,23.33-45.09,46.66-67.62,70-.97,1-1.92,1.57-3.34,.99-1.16-.48-1.66-1.24-1.71-2.52-.25-6.47-.22-12.94-.22-19.41-.02-28.69-.1-57.36,0-86.05,.16-42.85-.12-85.71-.04-128.57,.04-20.53-.02-41.07-.02-61.6,0-22.1,.03-44.19,.04-66.29,0-24.07,0-48.14,0-72.21C6.41,.88,6.45,.45,6.48,0h3.89c0,70.16,.02,140.34,0,210.5,0,35.12-.04,70.24-.08,105.36,0,3.05-.11,6.1-.08,9.14,.35,34.67,.1,69.34,.11,104.01v3.08c.54-.17,.79-.6,1.11-.91,29.3-30.33,58.62-60.65,87.86-91.03,1.88-1.95,4.22-1.9,6.06,.02,21.51,22.35,43.07,44.64,64.58,66.99,5.35,5.56,10.66,11.16,16.09,16.64,1.8,1.81,3.5,3.74,5.24,5.62,.42,.46,.8,.95,1.21,1.45,.47-.49,.3-.92,.3-1.29,0-59.78,0-119.57,0-179.36,0-79.84,0-159.67,.02-239.52,0-3.57,.13-7.13,.2-10.71h3.45Z"/></svg>