<svg xmlns="http://www.w3.org/2000/svg" viewBox="0 0 1397 2728"><path d="M1397 2659c-.82 1.97-1.29 4.21-2.54 5.87-4.15 5.53-8.23 11.16-12.98 16.16-5.64 5.94-11.42 11.99-18.09 16.64-6.27 4.36-13.54 7.57-20.78 10.15-6.48 2.3-13.44 3.59-20.3 4.38-16.27 1.89-32.57 3.91-48.91 4.59-14.97.62-30.02-.86-45.02-.67-11.24.15-22.37-.02-33.3-2.72-6.78-1.68-13.6-3.5-20.08-6.05-8.53-3.36-16.93-7.14-25.05-11.39-10.91-5.71-17.75-15.34-22.87-26.23-2.5-5.32-3.69-11.54-7.2-16-3.06-3.9-8.24-7.63-13-8.43-16.74-2.82-28.94-12.18-40.21-23.97-9.65-10.09-14.03-22.07-15.77-35.55-.74-5.78-2.87-11.38-3.78-17.15-1.31-8.35-1.98-16.8-3.13-25.17-.79-5.76-2.26-11.45-2.81-17.22-.71-7.56-.73-15.19-1.21-22.77-.41-6.56-1.21-13.09-1.54-19.66-.37-7.13-.21-14.29-.7-21.41-.14-2-1.32-4.32-2.75-5.78-6.43-6.56-9.13-14.84-10.26-23.46-.36-2.78 2.67-6 4.46-9.64-5.41-12.82-11.2-26.73-17.14-40.57-5.62-13.11-11.41-26.14-17.07-39.23-3.4-7.89-6.54-15.89-10.06-23.72-3.1-6.9-6.65-13.59-9.86-20.44-5.48-11.66-11.02-23.29-16.2-35.07-2.83-6.45-7.57-11-12.99-15.08-6.21-4.66-12.58-9.12-18.63-13.98-6.56-5.28-13.04-10.69-19.14-16.49-5.36-5.1-10.13-10.81-15.16-16.25-4-4.33-7.91-8.74-12.01-12.97-6.42-6.62-9.45-15.14-12.8-23.34-4.37-10.7-8.26-21.65-11.62-32.71-3.3-10.87-5.94-21.96-8.38-33.07-2.66-12.08-4.63-24.32-7.14-36.43-2.37-11.44-4.8-22.88-7.65-34.2-2.47-9.78-5.94-19.31-8.3-29.12-2.43-10.11-3.99-20.42-6.02-30.62-2.04-10.29-4.3-20.54-6.27-30.85-3-15.69-5.7-31.44-8.79-47.11-1.68-8.51-3.96-16.9-5.89-25.36-1.41-6.19-2.61-12.43-4.07-18.61-2.21-9.31-4.62-18.57-6.84-27.88-1.56-6.56-2.85-13.18-4.43-19.73-1.27-5.25-2.93-10.41-4.15-15.67-1.75-7.52-2.99-15.16-4.94-22.61-1.46-5.59-3.93-10.9-5.51-16.47-2.43-8.61-4.31-17.39-6.75-26-2.93-10.31-6.29-20.5-9.3-30.8-3.13-10.7-5.94-21.49-9.1-32.18-2.02-6.82-4.61-13.48-6.59-20.31-2.66-9.17-4.79-18.49-7.47-27.66-2.55-8.7-5.46-17.29-8.34-25.89-3.92-11.69-8.07-23.31-11.93-35.02-2.34-7.1-4.29-14.33-7.47-21.63-5.24 14.19-10.65 28.33-15.65 42.6-3.8 10.84-7.01 21.88-10.6 32.79-5.56 16.87-11.35 33.66-16.8 50.57-2.66 8.23-4.91 16.6-7.11 24.97-3.09 11.74-5.84 23.57-8.97 35.29-2.13 7.97-4.78 15.8-7.03 23.74-3.79 13.34-7.58 26.68-11.13 40.09-3.15 11.89-5.89 23.89-8.93 35.82-3.27 12.85-6.53 25.71-10.06 38.49-3.47 12.55-7.32 24.99-10.9 37.5-2.43 8.5-4.9 17.01-6.98 25.6-1.9 7.84-3.44 15.78-4.91 23.71-2.47 13.3-4.55 26.67-7.18 39.94-1.67 8.45-4.44 16.69-6.01 25.15-4.18 22.53-7.91 45.15-11.97 67.7-1.69 9.41-3.94 18.72-5.63 28.12-1.96 10.89-2.74 22.07-5.65 32.67-1.8 6.56-2.07 12.98-2.92 19.51-.76 5.81-2.93 11.48-4.82 17.1-4.18 12.38-7.62 25.12-13.11 36.91-9.2 19.76-20.92 38.17-37.27 52.92-5.52 4.98-12.68 8.13-19.06 12.18-1.4.89-3.19 1.78-3.85 3.13-4.74 9.76-9.41 19.57-13.76 29.51-3.84 8.76-7.09 17.78-10.88 26.56-5.09 11.81-10.85 23.36-15.57 35.31-4.34 11-7.54 22.45-11.49 33.61-2.84 8.01-6.21 15.82-9.12 23.81-1.93 5.3-3.92 10.66-5 16.17-.57 2.89.42 6.27 1.32 9.24 2.3 7.57 3.58 15.22 1.75 23-.78 3.32-1.66 7.67-4.04 9.35-5.2 3.67-3.5 8.49-3.57 12.9-.12 7.92.61 15.84.58 23.77-.02 7.44-.42 14.89-.91 22.32-.58 8.7-1.26 17.41-2.26 26.07-.49 4.23-1.16 8.66-2.87 12.49-3.23 7.23-9.83 11.21-16.49 14.96-14.11 7.93-29.76 10.61-45.25 14.3-11.1 2.64-20.32 9.36-27.1 19.21-6.2 9.02-9.46 19.07-12.67 29.3-4.13 13.16-11.92 23.8-22.41 32.88-9.63 8.33-20.48 14.01-32.24 18.49-11.23 4.28-21.95 10.25-33.47 13.35-13.74 3.69-28.09 5.11-42.17 7.56-.38.07-.68.59-1.02.9h-39c-.77-.52-1.51-1.46-2.3-1.5-6.08-.27-12.19-.02-18.23-.6-11.04-1.07-22.07-2.39-33.05-4.01-5.74-.85-11.33-2.68-17.02-3.88-7.2-1.53-14.89-2.14-20.26-7.87C15.9 2699.23 5.14 2688.62 0 2674v-13c1.65-2.92 3.66-5.7 4.87-8.79 3.74-9.56 9.53-17.63 16.44-25.16 8.35-9.1 15.84-19 24.34-27.95 9.95-10.47 21.42-19.58 30.65-30.6 7.6-9.08 16.16-16.96 24.65-25.02 9.83-9.33 20.25-18.05 29.94-27.53 10.85-10.62 21.16-21.8 31.73-32.7 5.79-5.97 11.77-11.77 17.45-17.85 5.67-6.08 11.2-12.3 16.42-18.77.85-1.05 0-3.73-.49-5.54-2.59-9.48-.82-18.16 2.87-27.2 2.91-7.12 8.65-10.56 13.54-15.38 1.76-1.73 1.19-5.86 1.6-8.91 1.66-12.15 3.4-24.29 4.88-36.46.68-5.62.68-11.31 1.26-16.94.4-3.88 1.43-7.7 1.86-11.58 1.42-12.8 2.58-25.64 4.05-38.43 1.18-10.29 2.07-20.68 4.27-30.76.99-4.54-1.05-6.77-3.66-7.93-9.64-4.29-16.8-11.24-23.62-19.01-6.8-7.74-9.72-16.5-10.01-26.54-.2-7.03 6.15-22.01 10.53-25.66-4.21-13.88-9.27-27.02-11.97-40.63-1.97-9.95-1.65-20.57-.89-30.78 1.06-14.31 3.11-28.57 5.45-42.74 1.74-10.53 4.64-20.87 6.94-31.31 4.15-18.79 8.21-37.6 12.38-56.38 3.2-14.38 6.55-28.73 9.78-43.11 2.63-11.69 5.01-23.44 7.82-35.09 1.63-6.77 4.15-13.32 5.81-20.08 2.69-10.96 5.19-21.97 7.42-33.03 2.44-12.11 4.28-24.34 6.8-36.43 1.5-7.19 4.03-14.17 5.71-21.33 1.29-5.5 1.65-11.22 3.02-16.7 2.02-8.11 4.97-16.01 6.79-24.16 2.1-9.46 3.1-19.17 5.12-28.65 2.88-13.48 6.33-26.84 9.39-40.28 2.4-10.55 4.48-21.17 6.91-31.71 2.18-9.48 4.42-18.96 7.03-28.33 2.73-9.8 6.08-19.43 8.9-29.21 4.65-16.11 9.42-32.19 13.53-48.44 3.6-14.23 6.13-28.73 9.58-43 2.86-11.82 6.5-23.45 9.53-35.24 1.45-5.66 1.9-11.58 3.47-17.19 2.68-9.58 6.01-18.98 8.85-28.52 2.18-7.32 3.98-14.75 6.04-22.1 3.18-11.33 6.41-22.65 9.65-33.96 2.07-7.2 4.33-14.35 6.27-21.58 3.48-12.98 6.47-26.11 10.26-38.99 2.51-8.53 6.17-16.72 9.13-25.13 2.71-7.69 5.16-15.47 7.74-23.2 1.02-3.07 1.99-6.17 3.11-9.21 5.21-14.12 10.62-28.18 15.66-42.36 2.73-7.68 4.56-15.69 7.38-23.33 2.26-6.13 5.56-11.86 8.1-17.9 3.05-7.27 5.78-14.68 8.96-22.85-5.25-1.44-10.46-2.91-15.68-4.31-17.96-4.8-34.37-13.03-47.46-26.04-5.32-5.29-8.4-3.63-13.78-2.13-8.44 2.35-17.69 2.35-24.41-3.93-5.7-5.32-9.58-12.58-14.46-18.83-1.07-1.37-2.87-2.76-4.5-2.99-8.1-1.16-16.24-2.22-24.4-2.76-7.94-.52-13.4-4.37-17.68-10.79-6.23-9.35-7.87-19.66-7.27-30.6.18-3.2.03-6.43.03-10.39-2.31-1.16-5.95-2.53-9.08-4.65-7.32-4.97-14.41-10.27-21.55-15.48-7.87-5.74-15.85-11.35-23.51-17.36-7.86-6.17-15.57-12.57-23.02-19.24-7.72-6.91-15.26-14.04-22.47-21.48-8.16-8.41-16.37-16.87-23.55-26.09-4.18-5.37-6.84-12.11-9.37-18.55-5.26-13.36-10.64-26.74-14.66-40.49-2.22-7.59-1.77-15.79 2.54-23.38 5.44-9.58 9.2-20.27 15.57-29.12 6.36-8.84 11.73-18.61 21.06-25.43 8.13-5.95 14.82-13.84 22.3-20.71 3.14-2.88 6.77-5.22 10-8.01 3.99-3.44 7.8-7.1 11.69-10.65 3.84-3.5 7.56-7.14 11.57-10.44 12.24-10.07 24.59-20.01 36.91-29.99 10.88-8.81 21.84-17.52 32.63-26.44 5.07-4.2 10.25-8.43 14.44-13.43 1.19-1.42-.53-5.76-1.59-8.49-4.23-10.83-4.33-21.67.8-32 1.49-2.99 5.44-5.09 8.67-6.83 13.53-7.26 27.17-14.31 40.86-21.27 7.3-3.71 14.8-7.03 22.18-10.58 2.88-1.38 3.24-4.07 2.94-6.81-.72-6.5-1.9-12.96-2.24-19.47-.13-2.35 1.13-5.11 2.54-7.15 4.61-6.67 12-9.42 19-12.67 9.35-4.34 18.53-9.08 28.08-12.95 8.18-3.32 16.82-5.47 25.14-8.45 9.73-3.49 19.37-7.24 28.98-11.04 12.33-4.87 24.41-10.45 36.94-14.68 8.46-2.86 14.1-8.91 20.69-14.1 7.07-5.57 14.42-10.96 22.27-15.3 4.18-2.31 9.39-1.26 14.2 1.1 7.13 3.51 14.61 6.33 22.04 9.2 2.59 1 10.09-4.12 10.33-7.07.3-3.79.54-7.74-.19-11.42-.97-4.86-2.9-9.53-4.53-14.6-2.68 1.84-4.75 3.83-7.22 4.87-8.25 3.45-16.59 4.39-24.86-.23-1.81-1.01-3.81-1.66-5.68-2.56-10.27-4.93-16.44-13.29-21.63-23.3-6.44-12.42-10.22-25.57-13.89-38.86-.16-.57-.68-1.03-1.91-2.81-.66 4.74-1.13 8.23-1.64 11.71-1.45 9.87-2.64 19.8-4.5 29.6-1.16 6.15-4.1 11.04-11.17 12.78-9.78 2.4-19.63 2.99-26.88-4.42-5.75-5.89-9.44-13.85-13.75-21.06-4.61-7.72-5.21-16.61-6.12-25.22-1.37-12.94-2.04-25.95-2.9-38.94-.13-1.94.37-3.92-.51-6.16-.83 2.12-2.17 4.18-2.39 6.36-1.15 11.09-8.51 17.65-17.79 20.68-8.53 2.79-17.35-.1-24.02-6.73-7.14-7.1-9.56-16.4-11.71-25.93-3-13.29-2.68-26.72-2.49-40.12.12-8.02 1.62-16.01 2.4-24.03.46-4.73.73-9.48 1.15-15.25-6.12 5.33-15.86 8.1-24.11 2.78-12.25-7.89-16.17-19.41-15.47-33.09.15-2.97 1.39-5.96 2.54-8.78 3.54-8.69 6.62-17.66 11.1-25.86 5.47-10.03 12.17-19.39 18.35-29.03 10.86-16.95 22.9-32.91 38.81-45.75-3.89-.24-7.56-.31-11.2-.72-6.45-.73-10.46-4.85-13.7-10.11-4.33-7-2.96-14.15-2.48-21.9.76-12.44 7.77-19.06 16.9-25.2 5.22-3.51 9.81-7.97 15.04-11.48 5.52-3.7 11.19-7.38 17.26-9.98 9.59-4.1 19.44-7.77 29.44-10.74 9.34-2.78 19-4.54 28.57-6.49 7.22-1.48 14.48-3.35 21.78-3.65C551.21 4.86 564.75.94 578.53 4c10.81 2.4 21.62 4.83 32.51 6.82 1.94.35 4.29-1.32 6.4-2.19C626.97 4.69 636.8 1.7 647 0h40c6.94 1.98 13.95 3.73 20.8 5.98 13.34 4.38 27.23 7.24 39.66 14.13 9.48 5.26 19.31 10.01 28.28 16.04 8.38 5.63 16.17 12.27 23.56 19.17 4.37 4.07 7.37 9.58 11.15 14.31 5.76 7.2 12.42 13.81 17.3 21.54 5.25 8.31 9.07 17.55 13.16 26.54 1.94 4.26 3.35 8.81 4.52 13.35 2.13 8.25-2.32 21.62-8.48 25.78-1.89 1.28-4.21 1.92-5.56 2.51 3.42 4.53 7.86 9.08 10.7 14.47 4.22 8.04 8.24 16.42 10.64 25.12 3.33 12.05 5.47 24.48 7.4 36.85 1.71 11.01.86 22.05-2.04 32.89-1.53 5.73-2.41 11.65-4.27 17.27-4.61 13.94-17.3 25.45-33.87 22.38.68 7.19 1.78 14.5 1.96 21.83.17 6.94.22 14.08-1.24 20.8-1.81 8.33-4.27 16.55-10.95 23.04-6.58 6.4-19.09 8.25-26.5 2.75-7.42-5.5-11.74-13.09-14.94-21.84-2.31 1.42-3.53 2.17-2.47 5.95 1.34 4.79.22 10.26.14 15.44-.16 9.72-2.59 19.05-8.67 26.46-5.01 6.1-11.1 11.91-20.24 11.78-1.53-.02-3.07.73-4.6 1.12 2.74 11.39 4.74 22.64 10.92 32.69 4.76-6.66 9.26-12.71 13.49-18.93 6.77-9.96 10.84-8.44 22.55-5.5 2.31.58 4.55 1.63 6.68 2.74 1.96 1.02 3.72 2.42 5.68 3.72 6.99-4.94 14.37-10.01 24.19-8.4 8.7 1.43 16.52 4.49 22.82 11.03 4.62-2.49 9.62-5.61 14.95-7.95 7.36-3.22 15.02-5.77 22.48-8.78 3.78-1.52 7.4-3.44 11.1-5.15 9.5-4.37 17.48-2.42 23.65 6.02 2.5 3.42 6.14 2.13 9 2.11 12.22-.05 23.99 2.5 35.79 5.1 5.71 1.26 11.45 2.36 17.16 3.64 4.85 1.09 8.11 3.6 9.6 8.82 1.58 5.54 4.47 10.69 6.29 16.17.84 2.53-.33 5.85 2.47 7.63 4.57 2.91 9.27 5.63 13.97 8.32 12.64 7.24 26.74 9 40.82 11.14 11.91 1.81 23.7 4.43 35.55 6.72 8.92 1.72 17.88 3.24 26.73 5.25 8.92 2.03 17.7 4.63 26.59 6.82 4.51 1.12 9.11 1.9 14.63 3.03-6.2-12.05-11.97-23.52-17.98-34.86-6.07-11.44-12.29-22.8-18.63-34.09-3.23-5.75-7.16-11.12-10.24-16.95-3.17-6.02-5.61-12.43-8.52-18.59-1.37-2.9-3.07-5.63-4.66-8.42-.24-.42-.98-.73-.98-1.09-.01-6.57-5.15-6.23-9.37-6.84-6.99-1.01-12.48-4.72-16.4-10.15-2.59-3.59-4.4-8.12-5.28-12.49-2.09-10.33-9.16-15.27-18.16-18.47-3.6-1.28-7.48-1.86-10.95-3.39-5.11-2.25-8.6-5.21-8.4-12.01.05-1.65 0-3.31 0-4.97-.65-.25-1.1-.6-1.54-.57-13.6.79-26.17-4.65-39.26-6.87-4.67-.79-8.99-5.17-12.91-8.55-8.31-7.18-16.59-14.46-24.25-22.31-8.51-8.72-16.83-17.73-24.27-27.36-7.13-9.22-4.56-24.59 1.49-33.22 1.26-1.8 3.93-2.62 6.72-4.37-3.57-2.84-6.21-5.68-9.44-7.38-9.06-4.76-16.32-11.6-23.02-19.08-6.37-7.11-12.7-14.32-18.35-22-5.93-8.07-10.19-16.94-10.6-27.43-.09-2.36-.59-5.28-2.26-8.05-3.47-5.77-5.38-12.45-4.37-19.58.64-4.55.38-9.24 1.15-13.77 1-5.84 7.72-10.09 13.54-8.7 2.97.71 5.65 2.78 8.62 3.23 2.13.32 4.69-.66 6.75-1.68 6.13-3.06 13.51-1.75 18.15 3.52 2.27 2.57 4.58 5.11 6.83 7.62 8.55-4.76 14.15-3.86 22.14 3.83 5.18 4.99 9.22 11.17 13.78 16.81 8.33 10.3 18.2 18.33 31.1 22.48 5.5 1.77 10.56 4.88 15.87 7.27 7.2 3.24 14.64 6 21.62 9.66 7.05 3.69 14.3 7.45 20.32 12.53 12.35 10.41 23.99 21.67 35.79 32.72 1.8 1.68 2.93 4.09 4.36 6.17 5.3 7.73 10.56 15.48 15.92 23.17.65.93 1.75 1.96 2.79 2.14 11.82 2.09 21.08 8.07 27.58 18.11 1.44 2.22 1.74 5.14 2.83 7.63 2.8 6.39 8.14 10.45 13.58 14.36 6.08 4.38 12.4 8.45 18.22 13.14 5.56 4.48 8.54 10.58 7.44 17.88-.44 2.89-2.11 5.6-2.68 7.05 15.25 13.39 29.77 26.12 44.28 38.89 7.09 6.23 14.44 12.2 21.1 18.86 6.99 6.99 13.65 14.38 19.8 22.11 6.9 8.68 13.15 17.88 19.51 26.96 5.23 7.47 10.34 15.03 15.29 22.68 3.41 5.28 6.53 10.76 9.63 16.23 3.73 6.58 7.68 13.07 10.85 19.92 4.15 8.95 8.03 18.08 11.25 27.4 2.59 7.47 4.11 15.32 5.95 23.03 1.5 6.29 3.23 12.57 4 18.96.79 6.61-.01 13.43.95 20 .75 5.11 2.08 9.9-1.18 14.54-.46.66-.75 1.54-1.36 1.98-3.16 2.3-6.39 4.5-9.6 6.73-6.56 4.56-12.87 9.52-19.73 13.56-10 5.89-20.88 10-32.25 12.34-8.44 1.74-17.04 3.05-25.63 3.61-9.35.61-18.79.48-28.16.06-16.07-.72-32.15-1.53-48.16-3.04-13.84-1.3-27.55-3.92-41.37-5.4-9.98-1.07-20.12-.72-30.07-1.94-9.58-1.18-18.97-3.78-28.51-5.33-6.01-.97-12.17-1.02-18.24-1.7-11.73-1.33-23.44-2.93-35.18-4.21-8.73-.95-17.5-1.58-26.25-2.34-8.36-.73-16.72-1.69-25.1-2.04-4.25-.18-8.55.76-13.39 1.25-2.69 8.47-5.27 17.16-8.24 25.72-1.46 4.22-4.01 8.07-5.42 12.3-3.37 10.1-6.04 20.44-9.57 30.48-3.68 10.49-8.32 20.65-12.02 31.13-4.05 11.44-7.58 23.06-11.19 34.65-2.25 7.24-4.98 14.45-6.12 21.89-1.03 6.72-.56 13.74-.11 20.59.79 12.02 1.89 24.03 3.21 36 .76 6.94 2.25 13.8 3.31 20.71 1.72 11.17 3.18 22.38 5.06 33.52 2.64 15.65 4.49 31.38 8.55 46.86 3.08 11.74 4.26 24.3 4.08 36.47-.18 12.62-4.08 24.79-13.88 33.95-2.89 2.71-6.24 4.94-9.06 7.72-1.15 1.13-1.97 3.08-2.06 4.7-.26 4.96-1.14 10.24.19 14.82 1.4 4.83 5.31 8.87 7.68 13.48 2.44 4.75 5.45 9.62 6.2 14.73 1.13 7.69-4.56 12.44-9.25 16.12 4.66 6.02 10.02 11.89 14.16 18.52 6.49 10.41 12.38 21.22 18.08 32.09 5.28 10.05 9.85 20.47 14.99 30.59 4.44 8.75 9.75 17.08 13.77 26.01 7.21 16.03 13.91 32.29 20.49 48.59 4.3 10.66 7.95 21.58 12.02 32.34 3.38 8.95 7.19 17.74 10.34 26.77 4.63 13.29 8.87 26.71 13.22 40.1 2.36 7.27 4.69 14.56 6.86 21.89 2.71 9.17 4.92 18.49 7.93 27.55 2.41 7.26 5.93 14.14 8.54 21.34 3.89 10.74 7.64 21.55 11.03 32.46 3.01 9.69 5.28 19.62 8.17 29.35 2.67 8.98 5.7 17.85 8.63 26.75 3.58 10.88 7.26 21.72 10.81 32.6 2.89 8.88 5.33 17.93 8.56 26.68 3.39 9.2 7.41 18.17 11.27 27.19 3.48 8.13 7.35 16.1 10.6 24.32 5.16 13.04 9.97 26.23 14.9 39.36 5.12 13.62 10.35 27.21 15.27 40.9 3.56 9.9 6.74 19.94 9.99 29.95 3.04 9.36 5.21 19.09 9.11 28.08 4.86 11.19 5.83 23.16 8.92 34.67 2.59 9.69 5.84 19.2 8.31 28.92 3.29 12.96 6.08 26.05 9.11 39.08 3.93 16.91 8.32 33.73 11.66 50.76 2.71 13.82 4.18 27.88 6.15 41.84 1.59 11.19 2.86 22.44 4.75 33.58 1.13 6.64 3.45 13.06 4.77 19.68 1.07 5.35 1.26 10.87 2.18 16.26 1.3 7.65 3.01 15.24 4.35 22.89 1.33 7.61 2.46 15.25 3.59 22.89 1.71 11.62 3.47 23.23 4.94 34.88 1.03 8.15 1.54 16.37 2.39 24.55.83 7.96 2.43 15.9 2.53 23.86.16 12.74-.05 25.55-1.3 38.22-.62 6.27-3.8 12.31-6.01 18.39-3.28 9.04-9.22 16.32-16.01 22.88-2.55 2.46-5.68 4.39-8.77 6.19-3.03 1.77-4.6 3.28-4.04 7.55.91 6.91.17 14.02.34 21.05.08 3.12.69 6.22 1.04 9.33 1.81 16.07 3.57 32.14 5.42 48.21.95 8.29 1.79 16.6 3.14 24.83 2.41 14.71 5.23 29.34 7.74 44.03 1 5.86 2.67 11.88 2.14 17.65-.66 7.23 4.62 10.07 8.09 14.25 9.48 11.41 14.02 20.69 5.51 34.28-1.87 2.99-1.74 5.46-.37 8.06 8.13 15.32 17.72 29.68 28.28 43.43 7.11 9.27 13.69 18.96 20.97 28.09 8.1 10.16 16.35 20.25 25.27 29.67 5.19 5.47 11.98 9.39 17.77 14.33 3.72 3.18 6.84 7.04 10.39 10.43 5.58 5.33 11.43 10.38 16.91 15.81 6.06 6.01 11.8 12.33 17.73 18.48 9.94 10.32 18.59 21.63 25.68 34.07 3.36 5.9 6.45 11.98 9.36 18.12 1.07 2.25 1.28 4.9 1.88 7.37v10Zm-181.17-233.34c.73-1.66 2.05-4.31 3.06-7.07 1.49-4.07 3.83-8.22 3.82-12.33-.01-3.99-1.85-8.44-4.14-11.85-2.69-4.02-6.79-7.09-10.14-10.7-1.04-1.13-2.1-2.6-2.35-4.05-2.78-16.19-5.5-32.4-8.03-48.63-1.54-9.89-2.11-19.98-4.23-29.74-3.29-15.16-5.02-30.46-5.98-45.89-.52-8.41-1.05-16.82-1.88-25.21-.78-7.98-2.16-15.91-2.79-23.9-.18-2.26.76-6.17 2.21-6.75 7.42-2.94 11.61-9.35 17-14.44 7.3-6.89 10.75-15.98 13.59-25.27 2.13-6.95 3.84-13.84 3.33-21.48-.7-10.5.66-21.13.48-31.69-.1-5.98-1.56-11.92-2.3-17.89a9511.6 9511.6 0 0 1-5-40.92c-.81-6.8-1.37-13.64-2.32-20.43-.85-6.07-1.37-12.34-3.32-18.08-2.87-8.43-1.03-17.53-5.45-25.92-3.36-6.36-3.85-14.27-5.42-21.53-.7-3.24-.83-6.6-1.44-9.86-.71-3.82-1.97-7.56-2.45-11.4-1.27-10.13-2.06-20.32-3.44-30.44-.81-5.91-2.55-11.69-3.59-17.58-2.19-12.38-3.83-24.87-6.36-37.19-2.47-12.04-5.7-23.94-8.71-35.87-2.87-11.37-5.79-22.72-8.85-34.04-4.12-15.22-8.44-30.37-12.56-45.59-1.75-6.47-2.86-13.13-4.87-19.51-3.44-10.94-7.44-21.71-11.03-32.6-1.95-5.91-3.31-12.02-5.34-17.91-2.92-8.47-6.17-16.82-9.33-25.21-3.92-10.39-7.86-20.77-11.84-31.14-2.68-7-5.46-13.97-8.15-20.97-2.92-7.6-5.68-15.27-8.7-22.84-2.64-6.6-5.84-12.99-8.27-19.66-3.9-10.73-7.43-21.59-10.99-32.44-5.14-15.68-10.07-31.42-15.27-47.07-3.38-10.18-7.32-20.17-10.59-30.39-4.19-13.1-7.75-26.41-11.98-39.5-2.49-7.72-6.08-15.08-8.61-22.79-3.69-11.26-6.83-22.69-10.3-34.03-3.71-12.15-7.25-24.35-11.35-36.37-7.13-20.92-14.48-41.77-22.01-62.55-3.51-9.68-7.72-19.1-11.52-28.68-3.21-8.08-6.22-16.25-9.44-24.33-2.25-5.66-4.62-11.26-7.04-16.85-3.64-8.41-7.08-16.92-11.13-25.12-6.92-14.04-14.39-27.81-21.37-41.82-8.89-17.85-17.15-36.06-32.82-49.43-1.76-1.5-1.73-3.29.95-4.82 5.52-3.16 8.89-10.86 7.35-15.91-.47-1.55-1.33-2.98-2.04-4.45-4.74-9.81-11.76-18.9-9.02-31 .36-1.61-.74-4.56-2.08-5.35-3.45-2.05-2.04-4.18-.47-5.9 2.74-2.99 5.79-5.75 8.96-8.31 9.98-8.07 13.89-19.08 14.66-31.25 1.22-19.22-4.43-37.67-7.2-56.44-1.61-10.94-3.33-21.86-4.67-32.83-1.54-12.64-2.85-25.31-4-38-.93-10.18-1.41-20.41-2.21-30.6-.28-3.65-.53-7.37-1.42-10.9-3.07-12.11-2.02-24.22.35-36.14 1.61-8.08 4.75-15.86 7.16-23.78 2.96-9.73 5.42-19.63 8.9-29.17 6.08-16.67 12.86-33.07 19.18-49.65 4.97-13.03 9.83-26.11 14.42-39.27 1.85-5.31 4.28-9.19 10.58-8.96 2.51.09 5.13.44 7.53-.08 10.53-2.28 20.87-.65 31.24.99 6.48 1.02 12.95 2.12 19.45 2.98 5.77.76 11.58 1.22 17.36 1.86 12.83 1.41 25.67 2.79 38.5 4.3 8.13.96 16.24 2.14 24.36 3.21 7.09.93 14.18 1.96 21.29 2.74 9.93 1.09 19.89 1.9 29.82 2.97 11.87 1.28 23.72 2.87 35.6 4 9.01.85 18.06 1.2 27.1 1.75 3.07.19 6.14.43 9.22.43 10.43 0 20.86-.04 31.29-.14 16.43-.16 31.85-5.03 46.33-12.02 9.6-4.63 18.81-10.81 26.73-17.92 4.79-4.3 11.32-8.47 9.06-18.48-2.56-11.37-1.01-23.55-4.76-35.08-2.81-8.64-3.53-18.03-6.91-26.39-5.97-14.79-12.85-29.26-20.13-43.47-4.88-9.53-11.07-18.39-16.7-27.53-2.33-3.78-4.46-7.74-7.15-11.25-6.9-8.98-14.67-17.33-20.95-26.71-7.49-11.18-17.23-20.05-26.93-29.01-11.39-10.54-23.16-20.67-34.72-31.03-7.76-6.95-15.28-14.19-23.29-20.84-2.45-2.04-2.51-2.8-.97-5.4 2.66-4.48 4.57-10.03 1.05-14.43-3.72-4.64-8.81-8.25-13.56-11.98-5.56-4.37-11.69-8.05-16.99-12.69-2.89-2.54-6.07-6.25-6.52-9.77-1.05-8.18-6.32-11.23-12.76-14.29-8.9-4.23-17.83-8.36-23.66-17.29-5.77-8.85-12.13-17.43-19.1-25.37-8.12-9.26-16.89-18-25.93-26.37-4.35-4.03-9.77-7.06-15.04-9.9-9.63-5.19-19.46-10.01-29.31-14.79-8.7-4.22-17.71-7.85-26.25-12.36-5.63-2.97-10.97-6.69-15.93-10.7-4.13-3.34-7.74-7.4-11.16-11.5-3.88-4.66-6.43-10.84-11.07-14.35-8.6-6.49-12.81-8.93-20.61 1.31-1.26-1.89-2.49-3.55-3.51-5.32-4.46-7.79-14.01-14.35-21.73-8.46-3.36 2.56-6.38 2.29-9.4-.6-.79-.76-1.98-1.15-3.03-1.59-4.49-1.87-11.61 1.83-11.74 6.66-.23 8.19-1.6 16.52 1.94 24.48 1.3 2.92 1.86 6.16 2.91 9.2 2.58 7.42 4.43 15.25 8.1 22.1 3.83 7.15 9.07 13.65 14.37 19.86 5.51 6.47 11.5 12.62 17.87 18.24 6.91 6.1 14.55 11.37 21.78 17.13 2.95 2.34 2.74 5-.58 6.93-7.13 4.15-9.01 11.21-10.01 18.46-.45 3.23-.22 7.43 1.52 9.91 4.53 6.47 9.8 12.5 15.27 18.23 9.73 10.19 19.57 20.33 29.91 29.88 4.28 3.95 9.62 7.64 15.11 9.21 12.39 3.54 25.22 5.53 37.79 8.49 3.67.86 7.17 2.13 7.09 7.63-.1 6.37 3.74 9.36 10.36 10.83 6.08 1.35 12.15 4.6 17.18 8.39 6.02 4.54 7.98 12.25 11.27 18.86 2.23 4.48 3.05 10.27 8.1 12.52 4.68 2.09 8.96 5.93 14.81 4.78.65-.13 1.75.88 2.31 1.62 2.91 3.84 6.18 7.51 8.45 11.71 3.47 6.43 5.95 13.39 9.34 19.87 4.24 8.11 9.01 15.94 13.49 23.92 4.85 8.65 9.69 17.3 14.4 26.03 3.39 6.3 6.8 12.61 9.75 19.11 3.28 7.22 6.28 14.59 8.97 22.04 1.5 4.15-.59 6.22-4.74 5.38-4.01-.81-8.03-1.63-12.02-2.57-12.99-3.07-25.95-6.24-38.94-9.28-8.98-2.1-17.97-4.17-26.99-6.03-14.84-3.06-29.72-5.94-44.59-8.87-2.62-.52-5.25-.95-7.89-1.32-2.7-.38-5.4-.72-8.12-.95-8.48-.73-13.37-9.2-21.8-10.08-.51-.05-1.18-.8-1.36-1.36-1.78-5.39-3.47-10.82-5.2-16.22-.29-.91-.6-1.81-.99-2.68-1.98-4.4-4-8.78-6.01-13.19-3.3-.37-6.92-.57-10.47-1.2-11.95-2.1-23.87-4.33-35.8-6.53-8.84-1.63-18.35-1.58-25.19-8.7-4.16-4.33-8.26-3.39-12.95-1.23-5.14 2.37-10.51 4.26-15.78 6.36-8.41 3.35-16.98 6.36-25.18 10.16-6.46 2.99-12.44 5.8-18.87.2-1.29-1.13-3.09-1.74-4.73-2.4-4.16-1.67-8.42-4.65-12.52-4.46-4.92.23-9.74 3.11-14.53 5.02-3.13 1.25-6.46 4.43-9.13 3.89-6.32-1.26-12.22-4.48-18.46-6.33-1.84-.55-4.94.14-6.28 1.47-5.8 5.72-11.13 11.91-16.69 17.86-1.24 1.33-2.85 3.51-4.09 3.38-2.19-.23-4.93-1.41-6.2-3.11-5.21-6.97-6.45-15.49-8.02-23.77-.61-3.22-.83-6.67-.38-9.89.26-1.9-.22-5.18 3.74-5.09 10.68.23 23.25-9.62 25.47-20.03 1.53-7.18 2.98-14.41 3.8-21.69.36-3.15-1.71-6.61-1.25-9.72.4-2.73 2.42-5.54 4.48-7.55.78-.76 4.52-.01 5.43 1.18 3.82 4.99 7.96 10.04 10.3 15.76 2.51 6.16 8.58 7.35 12.38 7.41 6.22.1 12.39-3.72 15.91-9.77 4.33-7.44 4.98-15.82 6.54-24.12 2.49-13.25-.88-25.49-3.3-38.06-.24-1.25.52-3.26 1.51-4 .7-.52 2.67.29 3.87.92 1.32.69 2.32 1.97 3.61 2.75 6.57 3.98 12.34-.24 16.66-3.54 6.45-4.93 10.51-12.36 12.14-20.65.84-4.29.91-8.8 2.22-12.92 2.95-9.27 3.03-18.62 1.8-28.06-.95-7.36-2.25-14.67-3.52-21.99-1.07-6.17-2.04-12.38-3.6-18.43-.93-3.62-3.11-6.89-4.34-10.45-3.62-10.47-8.72-19.81-18.87-26.18 1.08-.51 1.87-.88 2.66-1.26-.97-1.12-1.93-2.24-3.25-3.77 3.4-1.1 7.28-1.28 9.5-3.29 5.11-4.62 7.4-11.17 6.48-17.9-.76-5.5-3.7-10.67-4.96-16.14-2.06-8.92-7.44-16.11-12.02-23.6-4.61-7.53-10.64-14.19-15.98-21.29-9.14-12.15-20.65-21.83-32.77-30.74-6.23-4.58-13.11-8.33-19.87-12.12-7.02-3.93-13.96-8.29-21.47-10.99-12.58-4.53-25.49-8.24-38.43-11.62-6.82-1.78-13.99-2.81-21.03-2.95-10.23-.21-20.54.23-30.72 1.27-6.51.67-12.88 2.87-19.28 4.48-4.94 1.24-9.99 4.08-14.75 3.64-8.57-.79-16.88-3.98-25.44-5.29-7.23-1.11-14.66-1.46-21.98-1.31-7.9.16-15.85.9-23.67 2.09-12.39 1.89-24.74 4.08-36.99 6.71-6.89 1.48-13.61 3.87-20.26 6.25-8.28 2.96-16.88 5.48-24.49 9.72-9.72 5.41-18.47 12.53-27.87 18.57-13.45 8.65-16.48 19.88-14.42 34.74 1.11 7.99 6.83 12.91 14.68 13.94 4.85.64 9.75.94 13.79 1.32-8.8 9.52-18.57 18.8-26.77 29.32-8.25 10.59-14.78 22.51-22.35 33.66-7.08 10.42-13.28 21.19-17.39 33.2-3.83 11.19-8.24 21.91-2.81 34.03 5.48 12.25 17.54 18.8 30.22 11.45.86-.5 2.38-1.14 2.85-.77.95.74 1.99 2.17 1.95 3.27-.19 4.45-.79 8.87-1.22 13.31-.53 5.48-1.42 10.96-1.47 16.44-.06 7.94.78 15.88.73 23.82-.1 14.57 2.76 28.58 9.34 41.4 2.84 5.53 7.34 10.78 14.99 11.7 9.73 1.17 20.06-6.73 22.85-16.43 1.63-5.68 2.61-12.03 9.57-15.44.46 4.58 1.03 8.72 1.26 12.87.46 8.2.59 16.42 1.15 24.62.25 3.55 1.05 7.1 1.92 10.57 3.04 12.18 5.32 24.66 9.57 36.41 5.23 14.46 17.96 20.51 31.23 16.22 2.52-.82 5.46-2.84 6.52-5.1 2.11-4.46 3.74-9.39 4.31-14.28 1.48-12.73 2.45-25.53 3.26-38.32.23-3.67 1.84-4.76 4.55-5 1.91 5.89 3.74 11.4 5.47 16.94 4.09 13.13 8.22 26.11 15.46 38.11 6.26 10.38 14.12 17.69 25.67 21.35 10.28 3.26 19.67 3.44 27.33-5.55 2.15-2.53 3.97-2.06 4.99.82 3.01 8.51 6.12 17.01 8.56 25.69.68 2.41-.16 5.87-1.54 8.07-1.55 2.46-4.27 4.46-6.9 5.88-3.53 1.9-6.71 5.76-11.56 3.3-2.31-1.17-4.61-2.39-7-3.36-3.66-1.48-7.57-2.44-11.08-4.21-6.48-3.25-12.58-5.01-18.81.61-4.62 4.16-9.4 8.22-14.51 11.75-6.53 4.51-13.26 8.83-20.29 12.5-7.13 3.73-14.63 6.83-22.14 9.75-11.35 4.43-22.84 8.47-34.28 12.67-8.53 3.13-17.06 6.24-25.58 9.39-8.05 2.97-16.2 5.7-24.08 9.06-7.8 3.32-15.43 7.09-22.92 11.04-5.3 2.8-11.18 5.6-11.16 12.94 0 3.63 1.12 7.26 1.23 10.9.13 4.45 1.44 10.35-.83 13.06-4.17 4.99-10.29 8.64-16.13 11.88-7.75 4.3-16.14 7.42-24.01 11.51-8.88 4.62-17.35 10.01-26.26 14.58-8.02 4.12-11.76 8.87-10.5 15.16 1.26 6.35 3.08 12.62 3.86 19.02.56 4.59.91 9.11-3.04 13.43-7.45 8.14-15.62 15.1-24.61 21.53-10.51 7.52-19.86 16.65-29.81 24.96-7.79 6.5-15.77 12.78-23.6 19.22-5.82 4.79-11.68 9.56-17.29 14.61-5.76 5.18-11.12 10.8-16.85 16.03-6.87 6.27-13.95 12.3-20.91 18.48-9.35 8.31-17.49 17.77-24.21 28.23-4.85 7.55-7.95 16.21-12.55 23.95-3.95 6.64-3.31 13.95-3.11 20.69.35 12.03 2.64 23.98 8.44 34.96 4.36 8.26 7.23 17.47 12.54 25.01 5.34 7.59 12.75 13.76 19.46 20.34 10.45 10.24 20.97 20.41 31.66 30.4 4.92 4.6 10.07 9 15.5 12.98 9 6.59 18.83 12.13 27.33 19.29 9.26 7.79 18.94 14.78 29.13 21.21 1.16.73 1.43 3.46 1.46 5.28.16 7.86-.43 15.77.31 23.56.37 3.89 2.83 7.66 4.72 11.3 2.77 5.32 6.74 9.58 13.02 10.39 7.16.93 14.39 1.45 21.59 2.03 4.61.38 10.02.04 12.1 4.94 3.11 7.35 8.43 12.67 13.8 18.14 3.36 3.42 7.28 5.48 12.04 4.87 5.47-.7 11.06-1.39 16.22-3.17 3.47-1.2 4.77.43 6.69 2.22 3.31 3.08 6.72 6.04 10.1 9.04 6.8 6.04 15.19 9.26 23.45 12.34 9.27 3.46 18.89 6.06 28.49 8.53 3.94 1.01 6.25 3.09 6.32 6.75.08 4.39 0 9.07-1.39 13.16-3.76 11.03-8.43 21.75-12.42 32.71-5.52 15.15-10.83 30.38-16.09 45.63-6.04 17.51-11.88 35.08-17.89 52.6-2.82 8.23-6.04 16.34-8.7 24.62-1.99 6.19-3.15 12.63-5.08 18.84-3.84 12.37-7.96 24.66-11.95 36.99-3.08 9.5-6.17 19-9.2 28.52-.82 2.59-1.44 5.24-2.17 7.86-2.63 9.39-5.3 18.77-7.89 28.17-2.08 7.57-4.12 15.14-6.05 22.75-2.4 9.45-4.53 18.98-7.06 28.4-2.09 7.79-4.93 15.39-6.82 23.22-1.82 7.56-2.51 15.38-4.29 22.95-4.37 18.55-8.88 37.07-13.75 55.49-3.33 12.6-7.48 24.98-11.08 37.51-2.16 7.52-3.93 15.15-5.94 22.72-2.52 9.47-5.27 18.88-7.64 28.39-1.69 6.78-2.85 13.69-4.37 20.51-2.31 10.37-4.84 20.68-7.05 31.07-2.48 11.67-4.41 23.46-7.11 35.07-2.24 9.65-5.61 19.03-7.83 28.68-2.42 10.51-4.09 21.18-6.09 31.79-1.69 8.96-3.17 17.96-5.12 26.87-3.12 14.27-6.52 28.48-9.85 42.71-3.32 14.18-6.7 28.35-10.02 42.53-1.21 5.17-2.2 10.39-3.49 15.54-1.74 6.98-3.95 13.86-5.44 20.89-2.04 9.58-3.36 19.32-5.41 28.9-2.31 10.83-5.22 21.52-7.61 32.33-1.87 8.48-3.39 17.04-4.96 25.59-3.11 16.95-6.52 33.86-9.04 50.9-1.25 8.45-.63 17.16-1.11 25.74-.6 10.92 1.33 21.39 5.03 31.59 2.55 7.02 5.38 13.94 7.85 20.99.49 1.4.44 3.45-.25 4.71-1.82 3.34-4.04 6.47-6.26 9.57-5.78 8.06-5.08 17.57-1.59 25.14 3.77 8.16 10.7 15.21 17.39 21.55 5.58 5.3 12.83 8.82 19.25 13.27.92.64 1.32 2.03 1.96 3.07-1.06.42-2.09 1.01-3.2 1.22-.88.17-1.84-.12-2.66-.19-.39 5.78-.54 11.49-1.2 17.14-1.25 10.69-2.93 21.32-4.16 32.01-1.21 10.53-2.1 21.09-3.06 31.64-.49 5.35-.72 10.72-1.24 16.07-.57 5.86-1.34 11.7-2.05 17.55-.85 7.01-1.55 14.04-2.68 21.01-.66 4.02-1.38 8.3-3.32 11.77-1.54 2.75-5.17 4.24-7.53 6.63-4.98 5.06-8.52 11.35-8.63 18.28-.11 6.8 1.89 13.63 2.87 19.82-5.59 5.96-11.05 11.56-16.26 17.39-5.73 6.41-10.94 13.29-16.87 19.51-9.44 9.91-19.34 19.37-28.94 29.13-7.52 7.65-14.86 15.48-22.31 23.21-2.32 2.41-4.59 4.89-7.11 7.07-4.59 3.98-9.58 7.51-13.98 11.69-6.09 5.78-11.75 12.01-17.65 18-5.93 6.02-12.05 11.86-17.86 18-8.49 8.96-16.75 18.12-25.15 27.16-5.65 6.09-11.93 11.7-16.9 18.3-4.9 6.52-9.04 13.76-12.55 21.14-3.86 8.12-4.77 16.65 1.12 24.6 4.96 6.69 9.31 13.97 15.03 19.94 4.91 5.14 10.02 10.81 18.44 10.96 4.28.08 8.57 1.51 12.8 2.56 13.94 3.45 27.95 6.31 42.42 6.33 5.17 0 10.33.77 15.5.87 10.4.2 20.83.63 31.21.14 10.26-.49 20.57-1.43 30.67-3.23 11.08-1.98 22.3-4.18 32.8-8.07 14.68-5.44 29.03-11.77 42.44-20.25 16.51-10.45 27.64-24.22 32.83-43.19 4.18-15.28 12.14-28.11 25.3-37.95 7.21-5.39 15.35-7.18 23.25-9.84 8.31-2.8 17.34-3.43 25.75-6.01 6.13-1.89 12.14-4.84 17.5-8.39 3.62-2.4 7.68-6.24 8.62-10.15 2.11-8.72 2.66-17.86 3.34-26.86.55-7.24.29-14.53.53-21.8.15-4.53.96-9.07.77-13.58-.36-8.84-1.37-17.65-1.71-26.49-.06-1.53 1.81-3.15 2.84-4.69 1.88-2.82 4.01-5.49 5.66-8.44 3.74-6.69.52-13.52-.17-20.21-.75-7.31-5.14-14.18-1.02-21.98 2.46-4.67 3.39-10.12 5.26-15.13 2.84-7.61 6.08-15.09 8.81-22.74 3.21-8.98 5.74-18.2 9.15-27.1 5.36-13.97 11.05-27.82 16.9-41.59 3.97-9.34 8.42-18.47 12.71-27.67 4.73-10.15 9.45-20.3 14.38-30.35.62-1.27 3.18-3 3.75-2.67 3.66 2.15 6-.71 8.09-2.26 9.7-7.24 18.28-15.51 25.14-25.74 7.14-10.65 15.63-20.39 19.22-33.09.66-2.35 2.15-4.45 3.07-6.74 1.77-4.42 3.48-8.86 5.08-13.35 2.39-6.72 4.82-13.43 6.92-20.24 1.64-5.32 3.04-10.74 4.13-16.2.87-4.36.86-8.9 1.71-13.27 1.79-9.15 4.15-18.2 5.8-27.38 2.14-11.86 3.83-23.81 5.7-35.72 1.26-8.05 2.49-16.1 3.74-24.15 1.22-7.86 2.1-15.8 3.78-23.56 2.25-10.4 5.27-20.64 7.7-31.01 1.62-6.89 2.78-13.9 4.18-20.84 1.77-8.74 3.68-17.44 5.34-26.2 2.15-11.31 3.76-22.74 6.25-33.98 3.08-13.96 6.69-27.8 10.33-41.63 1.93-7.31 4.56-14.44 6.6-21.73 2.02-7.22 3.49-14.59 5.57-21.79 3.12-10.82 6.96-21.44 9.75-32.34 3.76-14.72 6.6-29.67 10.26-44.41 2.43-9.81 5.59-19.44 8.42-29.15 2.59-8.86 5.41-17.66 7.71-26.6 3.77-14.66 6.91-29.49 10.86-44.1 2.45-9.05 5.93-17.82 8.88-26.74 4.26-12.88 8.16-25.88 12.77-38.62 3.26-9 7.68-17.58 11.17-26.51 5.27-13.5 10.18-27.14 15.87-42.42 1.26 2.74 1.96 4.48 2.83 6.13 3.4 6.45 7.68 12.58 10.11 19.37 4.63 12.9 8.24 26.16 12.22 39.29 3.03 10 5.94 20.03 9 30.02 1.55 5.05 3.43 9.99 4.95 15.04 2.61 8.71 5.05 17.47 7.56 26.21.29 1.02.56 2.06.84 3.09 1.62 5.87 3.17 11.76 4.87 17.61 1.85 6.33 3.89 12.61 5.74 18.94 1.3 4.44 2.33 8.95 3.64 13.38 2.06 6.98 4.92 13.8 6.22 20.91 1.72 9.36 4.32 18.41 7.13 27.46 3.32 10.7 6.44 21.47 9.67 32.2 1.06 3.51 2.42 6.95 3.22 10.51 2.58 11.47 4.86 23.01 7.45 34.48 1.54 6.84 3.54 13.57 5.13 20.39 1.13 4.87 1.76 9.86 2.91 14.73 2.1 8.91 4.73 17.7 6.57 26.66 2.49 12.18 4.47 24.47 6.62 36.73 1.23 7 2.34 14.02 3.56 21.02 1.02 5.88 1.95 11.78 3.23 17.6 1.73 7.89 4.04 15.65 5.59 23.57 1.41 7.2 1.65 14.64 3.29 21.78 2.69 11.7 6.14 23.22 9.21 34.83 2.78 10.51 5.72 20.98 8.14 31.57 3.04 13.3 5.27 26.8 8.52 40.05 3.31 13.48 7.03 26.89 11.34 40.07 3.21 9.82 7.11 19.56 14.2 27.44 4.1 4.56 8.79 8.59 12.94 13.12 4.72 5.15 8.66 11.08 13.76 15.78 10.43 9.61 21.37 18.66 32.18 27.84 3.36 2.85 6.62 6.45 10.58 7.76 3.99 1.32 4.48 4.04 5.72 6.85.26.6.56 1.18.87 1.75 3.23 5.93 6.62 11.77 9.67 17.79 4.02 7.94 7.74 16.03 11.66 24.03 4.27 8.71 8.95 17.24 12.86 26.11 5.57 12.63 10.49 25.55 15.91 38.24 5.6 13.1 11.58 26.03 17.16 39.13 2.35 5.51 3.7 11.48 6.29 16.86 3.01 6.27 2.76 8.3-4.53 11.19 1.83 4.08 3.44 8.21 5.48 12.11 2.75 5.27 6.99 10.06 8.49 15.63 1.89 6.99 1.74 14.55 2.31 21.87 1.39 17.89 2.51 35.81 4.1 53.68.79 8.89 2.26 17.74 3.64 26.57 1.42 9.05 3.04 18.07 4.7 27.09 1.7 9.26 2.69 18.95 8.75 26.57 3.46 4.35 8.36 7.55 12.6 11.26 9.36 8.19 19.95 13.56 32.45 15.29 5.45.75 9.98 4.05 12.57 9.08 4.2 8.18 7.24 17.06 12.23 24.68 6.78 10.33 15.99 18.69 27.87 22.97 11.33 4.08 22.91 7.51 34.51 10.72 5.51 1.53 11.24.86 17.05.61 13.19-.58 26.47 1.61 39.73 1.78 13.1.18 26.23-.63 39.33-1.2 8.56-.37 17.13-.92 25.66-1.7 14.35-1.31 28.37-4.22 39.51-14.11 8.48-7.53 16.54-15.61 24.11-24.05 8.75-9.77 8.09-20.97 2.87-32.25-1.9-4.1-4.23-7.99-6.12-12.09-3.66-7.94-8.35-15.14-14.4-21.47-7.38-7.73-14.63-15.57-22.09-23.22-2.76-2.82-5.9-5.28-8.98-7.76-3.3-2.66-6.95-4.91-10.05-7.77-6.86-6.34-13.39-13.04-20.2-19.43-3.03-2.84-6.83-4.92-9.57-7.98-6.28-7.05-12.08-14.53-18.16-21.75-4.43-5.26-9.21-10.24-13.48-15.63-8.65-10.9-17.53-21.67-25.43-33.11-5.79-8.39-10.25-17.71-15.15-26.7-2.47-4.53-4.59-9.24-7.19-14.52Z"/><path d="M281.94 847.12c9.17-6.57 17.83-12.5 26.19-18.82 15.61-11.78 31.09-23.75 46.54-35.73 5.94-4.6 11.6-9.56 17.5-14.21 7.56-5.95 8.19-5.94 14.7 1.36 4.76 5.33 8.98 11.14 13.84 16.37 4.01 4.31 8.56 8.12 12.94 12.07 5.8 5.22 11.61 10.43 17.53 15.51 5.92 5.08 11.96 10.02 18 14.96 2.59 2.12 5.25 4.18 8.01 6.08 3.96 2.73 5.67 6.89 6.18 11.2.71 5.97 1.26 12.17.44 18.07-2.37 17.03-5.68 33.92-8.18 50.94-1.52 10.32-4.93 20.64-1.61 31.21.68 2.18 1.75 4.36 3.13 6.17 2.7 3.54 5.92 6.69 8.58 10.26 1.68 2.25.6 4.19-1.82 5.45-7.75 4.01-15.64 7.8-23.18 12.19-5.68 3.3-11.2 7.03-16.24 11.23-3.8 3.16-5.89 1.24-7.02-1.77-2.14-5.72-6.34-8.32-11.58-10.92-10.09-5-21.47-8.73-28.02-18.67-3.84-5.82-5.93-12.78-8.81-19.23-1.38-3.1-2.46-6.39-4.22-9.26-2.72-4.44-7.83-2.95-11.7-3.24-3.8-.29-6.03-.9-7.79-4.4-5.57-11.1-14.86-19.44-22.17-29.27-4.23-5.68-8.6-11.26-12.8-16.96-7.17-9.73-14.34-19.47-21.36-29.31-2.61-3.66-4.8-7.62-7.07-11.27Zm140.33 151.32c2.09-1.46 4.06-2.82 6.01-4.2 8.13-5.74 15.45-12.76 25.07-16.2 6.35-2.27 6.26-3.11 1.93-8.13-4.46-5.16-9.13-11.11-8.9-18.07.37-11.18 2.07-22.35 3.75-33.45 2.4-15.86 5.51-31.6 7.87-47.47.87-5.81.6-11.82.5-17.73-.02-1.11-1.58-2.39-2.7-3.25-2.62-2.04-5.49-3.75-8.09-5.81-9.73-7.71-19.78-15.09-28.98-23.4-10.34-9.34-22.08-17.38-29.03-30.15-2.22-4.09-5.99-7.34-8.37-10.16-31.24 22.84-61.82 45.2-92.3 67.48 6 7.33 12.79 14.93 18.78 23.11 8.02 10.97 15.06 22.67 23.21 33.54 5.97 7.96 12.23 15.57 16.28 24.82 1.43 3.26 4.16 5.24 8.78 4.92 5.27-.37 11.21.35 14.15 5.91 2.02 3.82 3.05 8.15 4.59 12.23 3.15 8.35 6.3 16.76 14.67 21.53 5.49 3.13 11.08 6.07 16.64 9.07 6.69 3.61 12.72 7.9 16.13 15.4Z"/></svg>