<svg xmlns="http://www.w3.org/2000/svg" viewBox="0 0 773 794"><path d="M338 794c-.18-.26-.33-.73-.53-.76-10.45-1.2-10.52-1.94-11.4-14.13-.92-12.69-1.26-25.42-2.1-38.12-.84-12.75-2-25.48-3-38.12-10.79.02-22.3-.66-33.54-4.09-5.27-1.61-10.82-2.33-16.04-4.07-14.02-4.66-28.97-7.1-40.52-17.68-7.42-6.8-15.42-12.97-23.51-19.71-9.08 10.66-18.6 21.76-28.04 32.92-8.47 10.02-16.7 20.26-25.37 30.11-4.25 4.83-4.61 4.57-11.88-1.19-9.01-7.14-17.93-14.39-26.93-21.54-7.75-6.15-15.95-11.8-23.27-18.41-8.58-7.73-16.66-16.05-24.51-24.54-5.2-5.62-4.74-10.15-.06-16.52 9.76-13.28 19.17-26.82 29.18-39.9 6.41-8.38 13.63-16.13 20.48-24.17 3.5-4.1 7.15-8.09 10.34-12.41.53-.72-.76-3.04-1.54-4.42-4.14-7.32-8.97-14.32-12.43-21.95-2.91-6.41-4.91-13.41-6.15-20.35-1.67-9.29-2.25-18.78-3.25-28.18-.15-1.39-.02-2.81-.02-4.35-7.13 0-14.22-.56-21.2.11-19.77 1.89-39.47 4.49-59.4 3.49-1.71-.09-3.5.68-5.17.46-8.08-1.06-12.98-7.08-13.55-16.51-.29-4.83-.32-9.67-.59-14.49-.98-17.33-2-34.65-3.06-51.97-.03-.52-.62-1.01-.95-1.51v-1c.79-6.39 1.59-12.78 2.35-19.18.6-5 .36-10.28 1.96-14.93 1.48-4.33 5.71-6.19 10.52-7.48 15.33-4.11 30.79-6.85 46.65-7.63 10.95-.54 21.87-1.65 32.81-2.35 2.17-.14 4.38.53 6.58.57 7.19.15 7.12.1 8.14-6.61 1.96-12.97 3.16-26.14 6.3-38.83 2.7-10.93 7.3-21.46 11.82-31.83 1.3-2.98-.11-4.21-1.38-5.1-4.51-3.15-9.61-5.49-14.01-8.78-7.91-5.94-15.49-12.32-23.18-18.56-6.74-5.48-13.64-10.79-20.09-16.6-6.23-5.61-14.07-9.39-18.56-17.07-1.88-3.21-1.16-5.63.38-8.03 7.08-11.07 14.27-22.08 21.58-33 8.49-12.68 17.03-25.33 25.77-37.84 5.57-7.98 11.52-15.68 17.32-23.5 4.45-6.01 9.32-7.59 15.53-3.9 9.78 5.81 19.31 12.06 28.71 18.47 7.96 5.43 15.55 11.38 23.35 17.04 9.3 6.75 18.63 13.45 27.96 20.14.93.66 1.95 1.19 2.93 1.78 9.28-13.48 67.04-45.71 91.44-47.1-.28-4.81-.73-9.62-.81-14.44-.23-12.74-.15-25.48-.5-38.21-.27-10.17-1.4-20.33-1.34-30.49.04-6.87 1.29-13.76 2.46-20.56.25-1.43 2.39-3.46 3.84-3.61 6.94-.76 13.93-1.04 20.91-1.35 5.54-.24 11.09-.29 16.64-.4 9.98-.21 19.95-.39 29.93-.66.68-.02 1.34-.63 2.01-.96h14c1.17.34 2.33.92 3.51.98 12.12.56 24.24.95 36.36 1.58 7.04.36 9.19 4.42 9.13 13.52-.08 11.85.74 23.7.98 35.56.17 8.5 0 17.01 0 25.52v15.28c19.05 2.75 37.21 7.05 54.85 15.01 17.47 7.88 34.82 15.74 51.37 25.65 7.31-7.72 14.55-15.39 21.82-23.03 4.75-4.99 9.6-9.87 14.3-14.91 4.96-5.31 9.79-10.76 14.71-16.12.86-.93 1.87-1.72 2.81-2.57 7.99-7.22 7.92-7.05 15.57.13 4.5 4.22 9.76 7.62 14.36 11.75 8.8 7.89 17.74 15.67 25.93 24.17 7.44 7.72 13.82 16.47 20.97 24.49 2.6 2.91 6.24 5.14 5.44 9.64-.58 3.28-1.02 7.26-3.08 9.48-12.26 13.19-25.06 25.89-37.51 38.9-5.47 5.72-10.58 11.79-15.08 16.83 12.86 17.97 27.17 34.93 35.89 56.19 8.7 21.2 12.48 43.25 17.3 66.55 4 .24 9.17.71 14.36.84 6.55.16 13.12-.13 19.67.07 13.57.42 27.14.91 40.7 1.63 4.53.24 9.17.83 13.46 2.18 1.51.48 2.16 3.71 3.2 5.68v71c-.51.39-1.45.74-1.48 1.17-.58 7.36-1.22 14.72-1.49 22.09-.24 6.56.39 13.18-.19 19.69-.47 5.23 1.14 11.21-3.6 15.42-1.44 1.28-3.31 2.62-5.12 2.84-9.33 1.12-18.68 2.25-28.06 2.66-8.3.36-16.65-.28-24.97-.39-7.93-.11-15.87-.24-23.79-.11-6.35.11-6.4.27-7.5 7.29-1.33 8.42-1.99 16.99-4 25.24-1.53 6.28-4.82 12.11-7.12 18.22-1.58 4.22-2.35 8.79-4.28 12.82-4.72 9.87-9.91 19.51-14.89 29.22 7.02 6.67 14.94 14.14 22.79 21.66 9.35 8.96 18.75 17.87 27.89 27.03 1.82 1.82 2.68 4.66 3.72 7.14.31.74.02 2.45-.51 2.72-6.03 3.03-5.1 10.4-9.31 14.64-2.49 2.5-4.1 5.87-6.15 8.82-5.69 8.19-11.54 16.27-17.07 24.56-3.21 4.81-5.67 10.12-8.91 14.91-2.52 3.72-5.61 7.08-8.64 10.42-4.39 4.83-8.84 9.61-13.48 14.19-2.96 2.92-9.03 3.22-12.36.65-10.99-8.5-21.81-17.24-32.81-25.73-10.89-8.39-21.93-16.58-32.88-24.89-1.25-.95-2.33-2.12-2.76-2.52-32.99 20.19-66.71 37.48-105.4 42.99.2 2.95.59 7.09.74 11.23.23 6.2.19 12.4.45 18.6.25 5.91 1.1 11.82 1.05 17.73-.08 10.33-.4 20.68-1.15 30.98-.25 3.37-2.63 4.71-6.78 4.5-8.72-.45-17.49.35-26.25.53-12.56.27-25.12.42-37.68.7-1.01.02-2.01.64-3.01.98h-40Zm352.7-165.62c-2.64-2.4-5.8-5.11-8.77-8.02-9.15-9-18.12-18.18-27.35-27.09-5.34-5.15-11.34-9.64-16.42-15.03-1.59-1.69-2.3-5.82-1.39-7.97 4.3-10.12 10.47-19.57 13.77-29.96 4.55-14.29 11.02-28.04 12.99-43.16 1.07-8.21 2.87-16.34 4.73-24.42.34-1.47 2.38-3.4 3.86-3.62 6.52-.98 13.12-1.85 19.7-1.93 9.31-.11 18.64.47 27.95.85 7.89.32 15.77.85 23.66 1.13 4.73.17 9.47.03 15.67.03 1.1-40.68 2.22-81.62 3.29-121.21-9.5 0-19 .06-28.49-.02-8.4-.07-16.79-.2-25.18-.51-9.62-.37-19.28-.55-28.81-1.74-2.78-.35-7.64-4.42-7.32-5.82 1.59-6.95-1.08-12.97-2.66-19.19-3.19-12.53-6.28-25.14-10.4-37.37-2.86-8.47-6.97-16.61-11.26-24.5-5.83-10.73-12.24-21.16-18.66-31.56-2.62-4.24-5.71-8.23-8.95-12.02-3.33-3.9-3.37-7.23.32-10.69 3.15-2.96 6.11-6.12 9.16-9.18 7.38-7.39 14.66-14.89 22.18-22.14 8.63-8.33 17.48-16.43 26.3-24.7-5.71-4.86-12.09-9.05-16.85-14.63-6.88-8.07-13.14-16.53-21.37-23.5-10.96-9.28-21.12-19.53-31.62-29.37-11.43 12.34-22.7 24.34-33.77 36.51-6.26 6.88-12.3 13.95-18.25 21.1-3.88 4.66-7.3 5.66-12.96 2.64-10.41-5.56-20.45-11.9-31.15-16.81-12.06-5.53-24.66-9.88-37.06-14.67-11.44-4.42-23.12-7.9-35.44-8.84-5.62-.43-6.57-1.68-6.02-7.18.06-.59.3-1.18.28-1.76-.45-12.69-.88-25.38-1.43-38.07-.27-6.16-.75-12.3-1.22-18.45-.48-6.33-1.76-12.69-1.37-18.95.24-3.88-.73-4.53-3.92-4.57-23.33-.3-46.66-.72-69.99-.96-14.1-.14-28.2-.03-42.52-.03 0 3.09-.03 5.41 0 7.73.19 12.12.5 24.23.54 36.35.03 7.23-.54 14.46-.5 21.69.07 10.64.63 21.27.57 31.91-.02 3.03-.15 6.36-4.48 7.83-8.95 3.04-17.91 6.26-26.41 10.36a661.745 661.745 0 0 0-39.59 20.74c-8.4 4.77-16.22 10.58-24.2 16.06-3.53 2.42-6.9 4.25-11.01 1.33-2.37-1.68-4.78-3.31-7.25-4.83-13.15-8.09-26.37-16.05-39.46-24.23-6.79-4.24-13.58-8.53-19.95-13.35-6.23-4.71-11.93-10.13-18.66-15.93-21.32 31.83-42.61 63.61-63.43 94.69 27.54 21.97 55.14 43.99 82.56 65.87-13.03 28.52-25.68 56.41-24.87 87.83-6.54 5.11-13.88 4.86-21.55 4.89-12.25.04-24.52 1.05-36.72 2.22-5.69.55-11.2 2.98-16.89 3.59-9.7 1.04-19.48 1.31-30.02 1.95 1.05 36.57 2.11 73.38 3.17 109.97 4.52-.54 9.02-1.23 13.55-1.58 8.46-.65 16.96-.9 25.41-1.7 7.87-.75 15.67-2.7 23.53-2.87 9.75-.21 19.53.79 29.29 1.48 1.35.1 3.15 1.08 3.82 2.2 1.48 2.46 2.9 5.19 3.4 7.97 1.06 5.91.85 12.1 2.35 17.87 3.42 13.13 8.08 25.96 11.21 39.15 2.06 8.69 11.07 16.82 2.7 26.9-3.56 4.28-5.63 9.76-8.91 14.32-9.09 12.65-18.43 25.13-27.72 37.64-2.05 2.76-4.4 5.29-6.42 8.06-3.67 5.02-7.04 10.28-10.86 15.18-1.92 2.45-2.38 4.03.61 5.77 1.4.81 2.61 1.99 3.79 3.11 7.27 6.9 14.37 13.98 21.8 20.71 5.94 5.38 12.36 10.22 18.39 15.5 9.79 8.56 19.44 17.29 29.41 26.19 1.22-1.54 2.91-3.53 4.44-5.64 4.79-6.59 9.22-13.47 14.35-19.79 8.34-10.27 17.07-20.23 25.73-30.23 3.73-4.31 7.59-8.54 11.65-12.54.9-.88 3.1-1.15 4.34-.7.74.27 3.07 2.12.58 4.01-.32.24.45 2.88 1.36 3.62 4.99 4.02 9.94 8.16 15.36 11.54 7.12 4.44 14.34 9.05 22.11 12.07 10.55 4.09 21.63 6.86 32.55 9.96 8.18 2.32 16.44 4.32 24.7 6.34 7.27 1.78 14.58 3.39 20.91 4.85.65 3.1 1.39 5.6 1.66 8.16 1.13 10.34 2.16 20.7 3.15 31.06 1.33 13.84 2.78 27.68 3.81 41.55.53 7.2 1.41 8.23 8.6 7.82 10.81-.63 21.63-1.3 32.45-1.52 13.1-.26 26.21-.07 39.32-.05 1.48 0 2.96.32 4.43.33 6.7.04 13.41.02 19.67.02-.45-4.87-1.09-9.71-1.31-14.57-.21-4.85.02-9.72.01-14.58 0-16.1-.25-32.19.05-48.28.12-6.57 2.3-9.02 7.29-8.83 12.96.49 24.97-3.75 36.69-7.99 15.24-5.5 29.93-12.58 44.64-19.45 6.31-2.94 12.12-6.98 18.06-10.67 2.43-1.51 4.68-3.33 6.87-5.17 4.66-3.92 7.96-1.44 11.73 1.77 10.24 8.72 20.79 17.08 31.15 25.65 5.07 4.2 10.06 8.5 14.98 12.88 6.23 5.54 12.35 11.21 18.15 16.49 21.9-26.26 37.28-57.15 60-83.26Z"/><path d="M491.41 410.95c-.93 4.26-2.09 9-2.96 13.79-1.11 6.06-1.58 12.27-3.03 18.23-2.74 11.26-8.89 20.76-16.37 29.47-3.64 4.24-7 8.74-10.88 12.74-2.89 2.97-6.11 5.91-9.73 7.82-7.57 4-15.69 6.97-23.24 11-11.12 5.94-22.72 4.66-34.32 3.04-12.32-1.72-24.65-3.55-36.81-6.15-7.42-1.59-14.87-3.97-21.64-7.35-10.7-5.33-19.59-13.05-25.53-23.81-1.8-3.26-4.48-6.03-6.6-9.13-8.52-12.46-13.43-26.06-14.41-41.31-.94-14.52.38-28.85 3.42-42.85 2.68-12.35 7.51-24.19 14.65-34.89 3.72-5.57 7.05-11.41 10.96-16.84 6.49-9.02 15.92-14.28 25.82-18.53 15.52-6.66 31.53-7.52 48.39-5.59 13.91 1.59 27.14 4.5 39.53 10.52 8 3.89 15.86 8.6 22.67 14.28 8.18 6.82 16.38 14.22 22.37 22.9 7.22 10.46 12.27 22.45 13.91 35.47 1.12 8.87 2.48 17.71 3.82 27.2ZM372.3 309.88c-19.08-.01-35.77 5.24-47.5 21.55-2.84 3.96-6.1 7.63-8.76 11.7-2.54 3.9-5.26 7.93-6.64 12.3-2.75 8.69-4.99 17.59-6.79 26.53-1.93 9.64-3.84 19.38-4.46 29.16-.87 13.76 2.77 27.01 7.53 39.82 1.4 3.78 3.84 7.4 6.56 10.42 4.96 5.52 10.99 10.12 15.62 15.87 5.72 7.08 14.24 8.28 21.65 11.58 5.85 2.6 12.59 3.1 18.8 5 13.19 4.03 26.6 6.75 40.37 5.18 9.64-1.1 18.27-5.67 27.13-9.62 13.21-5.89 21.91-16.18 30.09-27.17 8.8-11.82 10.57-26.23 13.57-40.1.85-3.9 1.63-8 1.35-11.93-.53-7.59-1.73-15.14-2.86-22.68-.85-5.67-1.3-11.57-3.23-16.88-4.2-11.55-11.05-21.37-19.64-30.42-8.45-8.9-18.77-14.88-29.29-19.76-16.69-7.74-34.91-10.74-53.52-10.54Z"/></svg>