<?xml version="1.0" encoding="UTF-8"?><svg xmlns="http://www.w3.org/2000/svg" viewBox="0 0 163.72 10.95"><defs><style>.d{fill:#4d4d4d;}</style></defs><g id="a"/><g id="b"><g id="c"><g><path class="d" d="M70.72,5.32c-2.62-.44-5.24-.72-7.87-.93-1.31-.12-2.62-.18-3.93-.28l-3.93-.18c-2.62-.09-5.24-.08-7.87,.02-2.62,.11-5.24,.21-7.87,.29l-15.73,.46c-5.24,.21-10.49,.37-15.73,.62v.31c5.24,.25,10.49,.41,15.73,.62l15.73,.46c2.62,.08,5.24,.18,7.87,.29,2.62,.1,5.24,.1,7.87,.02l3.93-.18c1.31-.09,2.62-.15,3.93-.28,2.62-.21,5.24-.49,7.87-.93v-.31Z"/><path class="d" d="M7.96,1.74l-.08-.08S1.34,5.01,0,5.48c1.34,.47,7.88,3.82,7.88,3.82l.08-.06-1.44-3.75,1.44-3.73Z"/><path class="d" d="M74.73,3.23c-.42-.51-.88-.85-1.35-1.11-.95-.5-1.93-.69-2.91-.59,.85,.64,1.67,1.2,2.38,1.86,.35,.33,.67,.68,.91,1.04,.24,.37,.36,.73,.36,1.03,0,.3-.1,.65-.33,1.03-.23,.37-.55,.72-.9,1.05-.71,.66-1.53,1.22-2.37,1.87,.98,.1,1.96-.09,2.91-.6,.47-.26,.93-.61,1.35-1.13,.21-.26,.39-.58,.54-.96,.07-.19,.13-.4,.17-.61,.02-.1,.04-.22,.05-.36,.01-.16,0-.12,.01-.31,0-.46-.1-.9-.25-1.27-.15-.37-.34-.68-.55-.94Z"/><path class="d" d="M76.26,0c.3,.97,.43,1.86,.52,2.77,.09,.9,.12,1.8,.13,2.71,0,.92-.04,1.79-.12,2.71-.09,.91-.22,1.8-.51,2.77,.75-.45,1.27-1.41,1.59-2.37,.32-.98,.47-2.06,.47-3.11,0-1.06-.15-2.12-.48-3.11-.32-.97-.84-1.92-1.59-2.37Z"/><path class="d" d="M155.92,5.32c-5.24-.25-10.49-.41-15.73-.62l-15.73-.46c-2.62-.08-5.24-.18-7.87-.29-2.62-.1-5.24-.1-7.87-.02l-3.93,.18c-1.31,.09-2.62,.15-3.93,.28-2.62,.21-5.24,.49-7.87,.93v.31c2.62,.44,5.24,.72,7.87,.93,1.31,.12,2.62,.18,3.93,.28l3.93,.18c2.62,.09,5.24,.08,7.87-.02,2.62-.11,5.24-.21,7.87-.29l15.73-.46c5.24-.21,10.49-.37,15.73-.62v-.31Z"/><path class="d" d="M155.84,1.66l-.08,.08,1.44,3.73-1.44,3.75,.08,.06s6.54-3.35,7.88-3.82c-1.34-.47-7.88-3.82-7.88-3.82Z"/><path class="d" d="M89.94,6.49c-.23-.37-.34-.72-.33-1.03,0-.3,.12-.66,.36-1.03,.23-.37,.56-.72,.91-1.04,.71-.66,1.53-1.22,2.38-1.86-.98-.1-1.96,.09-2.91,.59-.47,.26-.94,.6-1.35,1.11-.21,.26-.4,.57-.55,.94-.15,.37-.25,.82-.25,1.27,0,.19,0,.15,.01,.31,.01,.14,.03,.26,.05,.36,.04,.22,.1,.43,.17,.61,.15,.38,.33,.69,.54,.96,.41,.53,.88,.87,1.35,1.13,.95,.51,1.93,.7,2.91,.6-.84-.65-1.66-1.21-2.37-1.87-.35-.33-.67-.68-.9-1.05Z"/><path class="d" d="M87.45,0c-.75,.45-1.27,1.4-1.59,2.37-.33,.98-.47,2.05-.48,3.11,0,1.04,.15,2.13,.47,3.11,.32,.97,.84,1.92,1.59,2.37-.3-.97-.42-1.86-.51-2.77-.09-.91-.12-1.79-.12-2.71,0-.9,.04-1.8,.13-2.71,.09-.91,.22-1.8,.52-2.77Z"/><path class="d" d="M82.01,3.01c-.05,0-.1,.01-.15,.02-.05,0-.1-.02-.15-.02-1.05,0-1.9,1.1-1.9,2.47s.85,2.47,1.9,2.47c.05,0,.1-.01,.15-.02,.05,0,.1,.02,.15,.02,1.05,0,1.9-1.1,1.9-2.47s-.85-2.47-1.9-2.47Z"/></g></g></g></svg>